#!OML:ASF E:\Style4\Style4.ASF
:FULLY-SPECIFIED
:DEGREES
1020
root 0.210388 16.5873 0.330589 1.4464 15.0606 4.26923
lowerback 10.5169 4.43216 -0.0227349
upperback 6.0827 5.90097 -0.102371
thorax 0.469967 2.97226 -0.672653
lowerneck 10.4921 -0.25531 -3.67657
upperneck 1.42218 -0.70751 1.54497
head -1.31575 -0.384326 1.14557
rclavicle 8.74653e-015 1.11319e-014
rhumerus -31.2717 13.0706 -54.9307
rradius 136.52
rwrist -74.6086
rhand 57.4906 -5.89378
rfingers 7.12502
rthumb 73.8715 18.0019
lclavicle 8.74653e-015 1.11319e-014
lhumerus -22.6731 -3.83771 54.897
lradius 141.31
lwrist 73.4454
lhand 37.0574 50.3233
lfingers 7.12502
lthumb 59.9144 64.1932
rfemur -20.4911 -14.8565 13.4613
rtibia 57.7939
rfoot -32.1707 -23.1173
rtoes -14.3539
lfemur -24.4816 -2.93798 -24.776
ltibia 54.9894
lfoot -29.1071 7.98243
ltoes -16.5372
1021
root 0.213022 16.5845 0.329925 1.44265 14.9353 4.26802
lowerback 10.5774 4.53253 0.0953009
upperback 6.01658 6.04225 -0.211094
thorax 0.394187 3.04703 -0.871033
lowerneck 10.5883 -0.352763 -3.4095
upperneck 1.4732 -0.806961 1.58142
head -1.31315 -0.434262 1.11527
rclavicle 4.19436e-014 -7.95139e-016
rhumerus -31.6114 12.8397 -55.1531
rradius 136.533
rwrist -74.5296
rhand 57.4973 -5.71867
rfingers 7.12502
rthumb 73.8739 18.1988
lclavicle 4.19436e-014 -7.95139e-016
lhumerus -22.4641 -4.23643 54.7903
lradius 141.271
lwrist 73.474
lhand 37.1405 50.3091
lfingers 7.12502
lthumb 59.9855 64.1046
rfemur -20.5434 -14.7956 13.4536
rtibia 57.8459
rfoot -32.1807 -23.0328
rtoes -14.2921
lfemur -24.4983 -2.85298 -24.7935
ltibia 55.0102
lfoot -29.1101 8.12011
ltoes -16.8672
1022
root 0.217913 16.5839 0.330904 1.40771 14.8163 4.23708
lowerback 10.5883 4.57288 0.1819
upperback 6.00785 6.10274 -0.243187
thorax 0.392795 3.07984 -0.95855
lowerneck 10.7968 -0.399823 -3.18911
upperneck 1.32744 -0.852067 1.45647
head -1.3957 -0.452839 1.04224
rclavicle -1.59028e-014 -3.97569e-015
rhumerus -31.7481 12.7934 -55.2904
rradius 136.507
rwrist -74.3944
rhand 57.4476 -5.24646
rfingers 7.12502
rthumb 73.8559 18.5107
lclavicle -1.59028e-014 -3.97569e-015
lhumerus -22.2577 -4.42373 54.7126
lradius 141.264
lwrist 73.5661
lhand 37.1454 50.2444
lfingers 7.12502
lthumb 59.9897 64.0355
rfemur -20.542 -14.7501 13.4532
rtibia 57.875
rfoot -32.1946 -22.981
rtoes -14.3294
lfemur -24.4728 -2.75283 -24.7909
ltibia 55.0302
lfoot -29.1414 8.22049
ltoes -17.1198
1023
root 0.224239 16.5828 0.332796 1.40249 14.6653 4.26076
lowerback 10.5119 4.58279 0.161251
upperback 6.05927 6.11469 -0.23938
thorax 0.485435 3.0859 -0.934877
lowerneck 11.0151 -0.407707 -3.05072
upperneck 1.07865 -0.85733 1.26292
head -1.51513 -0.449588 0.960898
rclavicle 2.04748e-014 -2.70347e-014
rhumerus -31.699 12.9005 -55.384
rradius 136.434
rwrist -74.2206
rhand 57.2422 -4.60307
rfingers 7.12502
rthumb 73.7804 18.4958
lclavicle 2.04748e-014 -2.70347e-014
lhumerus -22.1326 -4.48717 54.7375
lradius 141.263
lwrist 73.5893
lhand 37.1235 50.1005
lfingers 7.12502
lthumb 59.9709 63.9113
rfemur -20.5743 -14.6685 13.3928
rtibia 57.896
rfoot -32.1276 -22.9916
rtoes -14.512
lfemur -24.4386 -2.65522 -24.8501
ltibia 55.0441
lfoot -29.1912 8.27444
ltoes -17.2141
1024
root 0.230402 16.5824 0.331926 1.3916 14.4984 4.25706
lowerback 10.4953 4.55476 0.143401
upperback 6.10917 6.07635 -0.208516
thorax 0.540516 3.06611 -0.885657
lowerneck 11.0256 -0.362301 -3.14192
upperneck 0.991565 -0.811344 1.19458
head -1.54651 -0.424736 0.953688
rclavicle 1.41137e-014 -2.22639e-014
rhumerus -31.5235 13.0599 -55.4174
rradius 136.383
rwrist -74.1572
rhand 57.0879 -4.2452
rfingers 7.12502
rthumb 73.7223 18.3633
lclavicle 1.41137e-014 -2.22639e-014
lhumerus -22.1684 -4.48113 54.8649
lradius 141.257
lwrist 73.4203
lhand 37.423 50.5137
lfingers 7.12502
lthumb 60.2268 64.0537
rfemur -20.6199 -14.5556 13.3672
rtibia 57.9186
rfoot -32.101 -22.9429
rtoes -14.5134
lfemur -24.4225 -2.55542 -24.8718
ltibia 55.0571
lfoot -29.2826 8.33522
ltoes -17.0442
1025
root 0.236127 16.5799 0.33011 1.39775 14.3634 4.30865
lowerback 10.4622 4.5414 0.0416908
upperback 6.17789 6.05065 -0.151948
thorax 0.612988 3.05018 -0.763047
lowerneck 10.8827 -0.329387 -3.35289
upperneck 1.03064 -0.789039 1.21599
head -1.50904 -0.414587 0.994559
rclavicle 9.66093e-014 -2.8625e-014
rhumerus -31.332 13.1466 -55.3528
rradius 136.38
rwrist -74.1073
rhand 57.0309 -4.124
rfingers 7.12502
rthumb 73.7005 18.3044
lclavicle 9.66093e-014 -2.8625e-014
lhumerus -22.2085 -4.47826 55.0211
lradius 141.295
lwrist 73.2372
lhand 37.924 51.3605
lfingers 7.12502
lthumb 60.6531 64.4365
rfemur -20.6624 -14.4916 13.2794
rtibia 57.9578
rfoot -32.1275 -22.8243
rtoes -14.3997
lfemur -24.4121 -2.50168 -24.9588
ltibia 55.0721
lfoot -29.3118 8.46911
ltoes -17.0618
